<svg width="1280" height="720" xmlns="http://www.w3.org/2000/svg" xmlns:xlink="http://www.w3.org/1999/xlink" overflow="hidden"><defs><clipPath id="clip0"><rect x="0" y="0" width="1280" height="720"/></clipPath></defs><g clip-path="url(#clip0)"><rect x="0" y="0" width="1280" height="720" fill="#FFFFFF"/><rect x="373.5" y="125.5" width="378" height="58" stroke="#2F528F" stroke-width="1.33333" stroke-miterlimit="8" fill="#4472C4"/><text fill="#FFFFFF" font-family="Calibri,Calibri_MSFontService,sans-serif" font-weight="400" font-size="24" transform="translate(410.328 162)">secondStageContinuationTask2</text><rect x="111.5" y="278.5" width="165" height="58" stroke="#2F528F" stroke-width="1.33333" stroke-miterlimit="8" fill="#4472C4"/><text fill="#FFFFFF" font-family="Calibri,Calibri_MSFontService,sans-serif" font-weight="400" font-size="24" transform="translate(127.011 315)">firstStageTask</text><path d="M0.281753-0.17812 93.6002 147.435 93.0366 147.791-0.281753 0.17812ZM95.9869 144.348 96.8807 153.248 89.2248 148.623Z" fill="#4472C4" transform="matrix(1 0 0 -1 276.5 307.748)"/><path d="M0.307143-0.129515 94.5976 223.48 93.9833 223.739-0.307143 0.129515ZM97.4581 220.827 96.8807 229.752 90.0867 223.935Z" fill="#4472C4" transform="matrix(1 0 0 -1 276.5 307.252)"/><path d="M0.00082142-0.333332 90.2149-0.111021 90.2133 0.555644-0.00082142 0.333332ZM88.8906-3.78096 96.8807 0.23874 88.8709 4.21901Z" fill="#4472C4" transform="matrix(1 0 0 -1 276.5 307.739)"/><rect x="373.5" y="201.5" width="378" height="59" stroke="#2F528F" stroke-width="1.33333" stroke-miterlimit="8" fill="#4472C4"/><text fill="#FFFFFF" font-family="Calibri,Calibri_MSFontService,sans-serif" font-weight="400" font-size="24" transform="translate(410.328 238)">secondStageContinuationTask3</text><rect x="373.5" y="278.5" width="378" height="58" stroke="#2F528F" stroke-width="1.33333" stroke-miterlimit="8" fill="#4472C4"/><text fill="#FFFFFF" font-family="Calibri,Calibri_MSFontService,sans-serif" font-weight="400" font-size="24" transform="translate(410.328 315)">secondStageContinuationTask4</text><rect x="373.5" y="354.5" width="378" height="59" stroke="#2F528F" stroke-width="1.33333" stroke-miterlimit="8" fill="#4472C4"/><text fill="#FFFFFF" font-family="Calibri,Calibri_MSFontService,sans-serif" font-weight="400" font-size="24" transform="translate(410.328 391)">secondStageContinuationTask5</text><rect x="373.5" y="431.5" width="378" height="58" stroke="#2F528F" stroke-width="1.33333" stroke-miterlimit="8" fill="#4472C4"/><text fill="#FFFFFF" font-family="Calibri,Calibri_MSFontService,sans-serif" font-weight="400" font-size="24" transform="translate(410.328 468)">secondStageContinuationTask6</text><rect x="373.5" y="48.5001" width="378" height="59" stroke="#2F528F" stroke-width="1.33333" stroke-miterlimit="8" fill="#4472C4"/><text fill="#FFFFFF" font-family="Calibri,Calibri_MSFontService,sans-serif" font-weight="400" font-size="24" transform="translate(410.328 85)">secondStageContinuationTask1</text><path d="M0.206977-0.261288 91.862 72.3424 91.4481 72.865-0.206977 0.261288ZM93.0935 68.6403 96.8807 76.7432 88.1261 74.9112Z" fill="#4472C4" transform="matrix(1 0 0 -1 276.5 307.243)"/><path d="M276.706 307.238 368.349 379.38 367.936 379.904 276.294 307.762ZM369.569 375.674 373.381 383.766 364.621 381.96Z" fill="#4472C4"/><path d="M276.782 307.322 370.092 454.462 369.529 454.819 276.219 307.679ZM372.474 451.372 373.381 460.27 365.718 455.656Z" fill="#4472C4"/><rect x="373.5" y="513.5" width="378" height="58" stroke="#2F528F" stroke-width="1.33333" stroke-miterlimit="8" fill="#4472C4"/><text fill="#FFFFFF" font-family="Calibri,Calibri_MSFontService,sans-serif" font-weight="400" font-size="24" transform="translate(410.328 549)">secondStageContinuationTask7</text><path d="M276.808 307.373 371.142 535.606 370.526 535.86 276.192 307.627ZM374.022 532.973 373.381 541.894 366.628 536.029Z" fill="#4472C4"/></g></svg>